<svg width="39" height="54" viewBox="0 0 39 54" fill="none" xmlns="http://www.w3.org/2000/svg">
<path d="M29.2 0.333347H45.3333C46.0406 0.333347 46.7189 0.614299 47.219 1.1144C47.7191 1.61449 48 2.29277 48 3.00001V51C48 51.7072 47.7191 52.3855 47.219 52.8856C46.7189 53.3857 46.0406 53.6667 45.3333 53.6667H2.66667C1.95942 53.6667 1.28115 53.3857 0.781048 52.8856C0.280951 52.3855 0 51.7072 0 51V29.5333C0.877333 29.6213 1.768 29.6667 2.66667 29.6667C17.3947 29.6667 29.3333 17.728 29.3333 3.00001C29.3333 2.10135 29.288 1.21068 29.2 0.333347ZM32 37.6667V43H37.3333V37.6667H32ZM23.8347 0.333347C24.2416 3.56038 23.9052 6.83773 22.8513 9.91483C21.7974 12.9919 20.0538 15.7873 17.7539 18.0872C15.454 20.3872 12.6586 22.1307 9.58149 23.1846C6.50438 24.2386 3.22703 24.5749 0 24.168V3.00001C0 2.29277 0.280951 1.61449 0.781048 1.1144C1.28115 0.614299 1.95942 0.333347 2.66667 0.333347H23.8347Z" fill="#95ACFF"/>
</svg>
